<svg width="44" height="50" viewBox="0 0 44 50" fill="none" xmlns="http://www.w3.org/2000/svg">
<g clip-path="url(#clip0)">
<path d="M23.5625 21.875H20.4375C20.0231 21.875 19.6257 22.0396 19.3326 22.3326C19.0396 22.6257 18.875 23.0231 18.875 23.4375V26.5625C18.875 26.9769 19.0396 27.3743 19.3326 27.6674C19.6257 27.9604 20.0231 28.125 20.4375 28.125H23.5625C23.9769 28.125 24.3743 27.9604 24.6674 27.6674C24.9604 27.3743 25.125 26.9769 25.125 26.5625V23.4375C25.125 23.0231 24.9604 22.6257 24.6674 22.3326C24.3743 22.0396 23.9769 21.875 23.5625 21.875ZM32.9375 21.875H29.8125C29.3981 21.875 29.0007 22.0396 28.7076 22.3326C28.4146 22.6257 28.25 23.0231 28.25 23.4375V26.5625C28.25 26.9769 28.4146 27.3743 28.7076 27.6674C29.0007 27.9604 29.3981 28.125 29.8125 28.125H32.9375C33.3519 28.125 33.7493 27.9604 34.0424 27.6674C34.3354 27.3743 34.5 26.9769 34.5 26.5625V23.4375C34.5 23.0231 34.3354 22.6257 34.0424 22.3326C33.7493 22.0396 33.3519 21.875 32.9375 21.875ZM42.3125 21.875H39.1875C38.7731 21.875 38.3757 22.0396 38.0826 22.3326C37.7896 22.6257 37.625 23.0231 37.625 23.4375V26.5625C37.625 26.9769 37.7896 27.3743 38.0826 27.6674C38.3757 27.9604 38.7731 28.125 39.1875 28.125H42.3125C42.7269 28.125 43.1243 27.9604 43.4174 27.6674C43.7104 27.3743 43.875 26.9769 43.875 26.5625V23.4375C43.875 23.0231 43.7104 22.6257 43.4174 22.3326C43.1243 22.0396 42.7269 21.875 42.3125 21.875ZM14.1875 21.875H11.0625C10.6481 21.875 10.2507 22.0396 9.95765 22.3326C9.66462 22.6257 9.5 23.0231 9.5 23.4375V26.5625C9.5 26.9769 9.66462 27.3743 9.95765 27.6674C10.2507 27.9604 10.6481 28.125 11.0625 28.125H14.1875C14.6019 28.125 14.9993 27.9604 15.2924 27.6674C15.5854 27.3743 15.75 26.9769 15.75 26.5625V23.4375C15.75 23.0231 15.5854 22.6257 15.2924 22.3326C14.9993 22.0396 14.6019 21.875 14.1875 21.875ZM23.5625 40.625H20.4375C20.0231 40.625 19.6257 40.7896 19.3326 41.0826C19.0396 41.3757 18.875 41.7731 18.875 42.1875V45.3125C18.875 45.7269 19.0396 46.1243 19.3326 46.4174C19.6257 46.7104 20.0231 46.875 20.4375 46.875H23.5625C23.9769 46.875 24.3743 46.7104 24.6674 46.4174C24.9604 46.1243 25.125 45.7269 25.125 45.3125V42.1875C25.125 41.7731 24.9604 41.3757 24.6674 41.0826C24.3743 40.7896 23.9769 40.625 23.5625 40.625ZM32.9375 40.625H29.8125C29.3981 40.625 29.0007 40.7896 28.7076 41.0826C28.4146 41.3757 28.25 41.7731 28.25 42.1875V45.3125C28.25 45.7269 28.4146 46.1243 28.7076 46.4174C29.0007 46.7104 29.3981 46.875 29.8125 46.875H32.9375C33.3519 46.875 33.7493 46.7104 34.0424 46.4174C34.3354 46.1243 34.5 45.7269 34.5 45.3125V42.1875C34.5 41.7731 34.3354 41.3757 34.0424 41.0826C33.7493 40.7896 33.3519 40.625 32.9375 40.625ZM42.3125 40.625H39.1875C38.7731 40.625 38.3757 40.7896 38.0826 41.0826C37.7896 41.3757 37.625 41.7731 37.625 42.1875V45.3125C37.625 45.7269 37.7896 46.1243 38.0826 46.4174C38.3757 46.7104 38.7731 46.875 39.1875 46.875H42.3125C42.7269 46.875 43.1243 46.7104 43.4174 46.4174C43.7104 46.1243 43.875 45.7269 43.875 45.3125V42.1875C43.875 41.7731 43.7104 41.3757 43.4174 41.0826C43.1243 40.7896 42.7269 40.625 42.3125 40.625ZM42.3125 31.25H39.1875C38.7731 31.25 38.3757 31.4146 38.0826 31.7076C37.7896 32.0007 37.625 32.3981 37.625 32.8125V35.9375C37.625 36.3519 37.7896 36.7493 38.0826 37.0424C38.3757 37.3354 38.7731 37.5 39.1875 37.5H42.3125C42.7269 37.5 43.1243 37.3354 43.4174 37.0424C43.7104 36.7493 43.875 36.3519 43.875 35.9375V32.8125C43.875 32.3981 43.7104 32.0007 43.4174 31.7076C43.1243 31.4146 42.7269 31.25 42.3125 31.25ZM42.3125 12.5H39.1875C38.7731 12.5 38.3757 12.6646 38.0826 12.9576C37.7896 13.2507 37.625 13.6481 37.625 14.0625V17.1875C37.625 17.6019 37.7896 17.9993 38.0826 18.2924C38.3757 18.5854 38.7731 18.75 39.1875 18.75H42.3125C42.7269 18.75 43.1243 18.5854 43.4174 18.2924C43.7104 17.9993 43.875 17.6019 43.875 17.1875V14.0625C43.875 13.6481 43.7104 13.2507 43.4174 12.9576C43.1243 12.6646 42.7269 12.5 42.3125 12.5ZM23.5625 31.25H20.4375C20.0231 31.25 19.6257 31.4146 19.3326 31.7076C19.0396 32.0007 18.875 32.3981 18.875 32.8125V35.9375C18.875 36.3519 19.0396 36.7493 19.3326 37.0424C19.6257 37.3354 20.0231 37.5 20.4375 37.5H23.5625C23.9769 37.5 24.3743 37.3354 24.6674 37.0424C24.9604 36.7493 25.125 36.3519 25.125 35.9375V32.8125C25.125 32.3981 24.9604 32.0007 24.6674 31.7076C24.3743 31.4146 23.9769 31.25 23.5625 31.25ZM23.5625 12.5H20.4375C20.0231 12.5 19.6257 12.6646 19.3326 12.9576C19.0396 13.2507 18.875 13.6481 18.875 14.0625V17.1875C18.875 17.6019 19.0396 17.9993 19.3326 18.2924C19.6257 18.5854 20.0231 18.75 20.4375 18.75H23.5625C23.9769 18.75 24.3743 18.5854 24.6674 18.2924C24.9604 17.9993 25.125 17.6019 25.125 17.1875V14.0625C25.125 13.6481 24.9604 13.2507 24.6674 12.9576C24.3743 12.6646 23.9769 12.5 23.5625 12.5ZM14.1875 40.625H11.0625C10.6481 40.625 10.2507 40.7896 9.95765 41.0826C9.66462 41.3757 9.5 41.7731 9.5 42.1875V45.3125C9.5 45.7269 9.66462 46.1243 9.95765 46.4174C10.2507 46.7104 10.6481 46.875 11.0625 46.875H14.1875C14.6019 46.875 14.9993 46.7104 15.2924 46.4174C15.5854 46.1243 15.75 45.7269 15.75 45.3125V42.1875C15.75 41.7731 15.5854 41.3757 15.2924 41.0826C14.9993 40.7896 14.6019 40.625 14.1875 40.625ZM23.5625 3.125H20.4375C20.0231 3.125 19.6257 3.28962 19.3326 3.58265C19.0396 3.87567 18.875 4.2731 18.875 4.6875V7.8125C18.875 8.2269 19.0396 8.62433 19.3326 8.91735C19.6257 9.21038 20.0231 9.375 20.4375 9.375H23.5625C23.9769 9.375 24.3743 9.21038 24.6674 8.91735C24.9604 8.62433 25.125 8.2269 25.125 7.8125V4.6875C25.125 4.2731 24.9604 3.87567 24.6674 3.58265C24.3743 3.28962 23.9769 3.125 23.5625 3.125ZM32.9375 3.125H29.8125C29.3981 3.125 29.0007 3.28962 28.7076 3.58265C28.4146 3.87567 28.25 4.2731 28.25 4.6875V7.8125C28.25 8.2269 28.4146 8.62433 28.7076 8.91735C29.0007 9.21038 29.3981 9.375 29.8125 9.375H32.9375C33.3519 9.375 33.7493 9.21038 34.0424 8.91735C34.3354 8.62433 34.5 8.2269 34.5 7.8125V4.6875C34.5 4.2731 34.3354 3.87567 34.0424 3.58265C33.7493 3.28962 33.3519 3.125 32.9375 3.125ZM42.3125 3.125H39.1875C38.7731 3.125 38.3757 3.28962 38.0826 3.58265C37.7896 3.87567 37.625 4.2731 37.625 4.6875V7.8125C37.625 8.2269 37.7896 8.62433 38.0826 8.91735C38.3757 9.21038 38.7731 9.375 39.1875 9.375H42.3125C42.7269 9.375 43.1243 9.21038 43.4174 8.91735C43.7104 8.62433 43.875 8.2269 43.875 7.8125V4.6875C43.875 4.2731 43.7104 3.87567 43.4174 3.58265C43.1243 3.28962 42.7269 3.125 42.3125 3.125ZM4.8125 21.875H1.6875C1.2731 21.875 0.875671 22.0396 0.582646 22.3326C0.28962 22.6257 0.125 23.0231 0.125 23.4375L0.125 26.5625C0.125 26.9769 0.28962 27.3743 0.582646 27.6674C0.875671 27.9604 1.2731 28.125 1.6875 28.125H4.8125C5.2269 28.125 5.62433 27.9604 5.91735 27.6674C6.21038 27.3743 6.375 26.9769 6.375 26.5625V23.4375C6.375 23.0231 6.21038 22.6257 5.91735 22.3326C5.62433 22.0396 5.2269 21.875 4.8125 21.875ZM4.8125 40.625H1.6875C1.2731 40.625 0.875671 40.7896 0.582646 41.0826C0.28962 41.3757 0.125 41.7731 0.125 42.1875L0.125 45.3125C0.125 45.7269 0.28962 46.1243 0.582646 46.4174C0.875671 46.7104 1.2731 46.875 1.6875 46.875H4.8125C5.2269 46.875 5.62433 46.7104 5.91735 46.4174C6.21038 46.1243 6.375 45.7269 6.375 45.3125V42.1875C6.375 41.7731 6.21038 41.3757 5.91735 41.0826C5.62433 40.7896 5.2269 40.625 4.8125 40.625ZM4.8125 31.25H1.6875C1.2731 31.25 0.875671 31.4146 0.582646 31.7076C0.28962 32.0007 0.125 32.3981 0.125 32.8125L0.125 35.9375C0.125 36.3519 0.28962 36.7493 0.582646 37.0424C0.875671 37.3354 1.2731 37.5 1.6875 37.5H4.8125C5.2269 37.5 5.62433 37.3354 5.91735 37.0424C6.21038 36.7493 6.375 36.3519 6.375 35.9375V32.8125C6.375 32.3981 6.21038 32.0007 5.91735 31.7076C5.62433 31.4146 5.2269 31.25 4.8125 31.25ZM4.8125 12.5H1.6875C1.2731 12.5 0.875671 12.6646 0.582646 12.9576C0.28962 13.2507 0.125 13.6481 0.125 14.0625L0.125 17.1875C0.125 17.6019 0.28962 17.9993 0.582646 18.2924C0.875671 18.5854 1.2731 18.75 1.6875 18.75H4.8125C5.2269 18.75 5.62433 18.5854 5.91735 18.2924C6.21038 17.9993 6.375 17.6019 6.375 17.1875V14.0625C6.375 13.6481 6.21038 13.2507 5.91735 12.9576C5.62433 12.6646 5.2269 12.5 4.8125 12.5ZM4.8125 3.125H1.6875C1.2731 3.125 0.875671 3.28962 0.582646 3.58265C0.28962 3.87567 0.125 4.2731 0.125 4.6875L0.125 7.8125C0.125 8.2269 0.28962 8.62433 0.582646 8.91735C0.875671 9.21038 1.2731 9.375 1.6875 9.375H4.8125C5.2269 9.375 5.62433 9.21038 5.91735 8.91735C6.21038 8.62433 6.375 8.2269 6.375 7.8125V4.6875C6.375 4.2731 6.21038 3.87567 5.91735 3.58265C5.62433 3.28962 5.2269 3.125 4.8125 3.125ZM14.1875 3.125H11.0625C10.6481 3.125 10.2507 3.28962 9.95765 3.58265C9.66462 3.87567 9.5 4.2731 9.5 4.6875V7.8125C9.5 8.2269 9.66462 8.62433 9.95765 8.91735C10.2507 9.21038 10.6481 9.375 11.0625 9.375H14.1875C14.6019 9.375 14.9993 9.21038 15.2924 8.91735C15.5854 8.62433 15.75 8.2269 15.75 7.8125V4.6875C15.75 4.2731 15.5854 3.87567 15.2924 3.58265C14.9993 3.28962 14.6019 3.125 14.1875 3.125Z" fill="#000000"/>
</g>
<defs>
<clipPath id="clip0">
<rect width="43.75" height="50" fill="white" transform="translate(0.125)"/>
</clipPath>
</defs>
</svg>
