<svg width="233" height="62" viewBox="0 0 233 62" fill="none" xmlns="http://www.w3.org/2000/svg">
<path d="M37.6641 15.3991H41.3409V41.0931H52.3713V44.7848H37.6641V15.3991ZM63.8245 15.3991C66.0061 15.3991 68.1387 16.0487 69.9527 17.2656C71.7666 18.4826 73.1804 20.2122 74.0153 22.2359C74.8501 24.2596 75.0686 26.4864 74.643 28.6347C74.2173 30.7831 73.1668 32.7565 71.6242 34.3053C70.0815 35.8542 68.1161 36.909 65.9764 37.3363C63.8367 37.7636 61.6189 37.5443 59.6033 36.7061C57.5878 35.8678 55.8651 34.4483 54.6531 32.6271C53.441 30.8058 52.7941 28.6645 52.7941 26.4741C52.7941 25.0197 53.0794 23.5796 53.6337 22.2359C54.1881 20.8922 55.0006 19.6713 56.0248 18.6429C57.0491 17.6145 58.2651 16.7987 59.6033 16.2422C60.9416 15.6856 62.376 15.3991 63.8245 15.3991ZM63.8245 33.8574C65.2789 33.8574 66.7006 33.4244 67.9099 32.6131C69.1192 31.8018 70.0618 30.6487 70.6183 29.2996C71.1749 27.9505 71.3205 26.4659 71.0368 25.0337C70.7531 23.6015 70.0527 22.2859 69.0243 21.2533C67.9959 20.2208 66.6856 19.5176 65.2591 19.2327C63.8327 18.9478 62.3541 19.094 61.0104 19.6528C59.6667 20.2116 58.5182 21.158 57.7102 22.3722C56.9022 23.5864 56.4709 25.0138 56.4709 26.4741C56.4806 28.4259 57.2597 30.2944 58.6377 31.6711C60.0157 33.0477 61.8806 33.8206 63.8245 33.8205V33.8574ZM56.4709 41.13H71.1781V44.8217H56.4709V41.13ZM103.534 44.8217H99.8571V42.1821C97.486 43.8486 94.6625 44.7442 91.7682 44.7479C89.3001 44.7644 86.8676 44.1571 84.6947 42.9819C82.5218 41.8066 80.6785 40.1012 79.3345 38.0228C77.9905 35.9443 77.189 33.5597 77.004 31.0886C76.8189 28.6175 77.2562 26.1394 78.2756 23.8825C79.295 21.6257 80.8637 19.6627 82.8371 18.1745C84.8106 16.6862 87.1253 15.7206 89.5681 15.3664C92.0108 15.0123 94.5031 15.2811 96.8152 16.1481C99.1274 17.0151 101.185 18.4524 102.799 20.3275L100.096 22.7455C98.8689 21.3679 97.3177 20.3205 95.5841 19.699C93.8504 19.0774 91.9894 18.9013 90.1706 19.1869C88.3518 19.4724 86.6331 20.2104 85.1712 21.3337C83.7092 22.457 82.5505 23.9297 81.8007 25.6178C81.0509 27.3058 80.7337 29.1554 80.8782 30.9981C81.0227 32.8407 81.6242 34.6177 82.6278 36.1672C83.6315 37.7166 85.0055 38.9892 86.6245 39.8689C88.2435 40.7487 90.056 41.2076 91.8969 41.2039C93.4246 41.207 94.9351 40.8788 96.3248 40.2417C97.7146 39.6045 98.9508 38.6734 99.9491 37.5122H90.0217V33.8205H103.571L103.534 44.8217ZM117.065 15.473C119.246 15.473 121.379 16.1225 123.193 17.3394C125.007 18.5564 126.42 20.2861 127.255 22.3097C128.09 24.3334 128.309 26.5602 127.883 28.7086C127.457 30.8569 126.407 32.8303 124.864 34.3792C123.322 35.928 121.356 36.9828 119.216 37.4101C117.077 37.8375 114.859 37.6182 112.843 36.7799C110.828 35.9417 109.105 34.5222 107.893 32.7009C106.681 30.8796 106.034 28.7384 106.034 26.548C106.024 25.0843 106.304 23.6331 106.856 22.2785C107.408 20.9239 108.223 19.6926 109.252 18.6559C110.281 17.6191 111.504 16.7975 112.852 16.2385C114.199 15.6795 115.644 15.3942 117.101 15.3991L117.065 15.473ZM117.065 33.9313C118.519 33.9313 119.941 33.4983 121.15 32.687C122.359 31.8757 123.302 30.7226 123.858 29.3734C124.415 28.0243 124.561 26.5398 124.277 25.1075C123.993 23.6753 123.293 22.3597 122.264 21.3272C121.236 20.2946 119.926 19.5914 118.499 19.3065C117.073 19.0216 115.594 19.1678 114.25 19.7267C112.907 20.2855 111.758 21.2318 110.95 22.446C110.142 23.6602 109.711 25.0877 109.711 26.548C109.74 28.4933 110.533 30.3485 111.916 31.7103C113.3 33.0721 115.164 33.8305 117.101 33.8205L117.065 33.9313ZM109.711 41.2039H124.418V44.8955H109.711V41.2039ZM132.011 15.3991H135.688V44.7479H132.011V15.3991ZM140.78 15.3991H144.457C144.646 15.379 144.837 15.379 145.027 15.3991C146.566 15.2314 148.124 15.3912 149.599 15.868C151.073 16.3449 152.431 17.1282 153.583 18.1668C154.736 19.2055 155.658 20.4763 156.289 21.8965C156.92 23.3166 157.247 24.8544 157.247 26.4095C157.247 27.9647 156.92 29.5024 156.289 30.9226C155.658 32.3428 154.736 33.6136 153.583 34.6522C152.431 35.6909 151.073 36.4741 149.599 36.951C148.124 37.4279 146.566 37.5876 145.027 37.4199H144.457V44.8032H140.78V15.3991ZM144.457 19.0908V33.6913H145.027C146.065 33.8302 147.121 33.7446 148.124 33.4404C149.127 33.1362 150.054 32.6203 150.842 31.9273C151.63 31.2343 152.262 30.3802 152.694 29.4222C153.127 28.4643 153.351 27.4245 153.351 26.3726C153.351 25.3207 153.127 24.2809 152.694 23.323C152.262 22.365 151.63 21.5109 150.842 20.8179C150.054 20.1249 149.127 19.6091 148.124 19.3048C147.121 19.0006 146.065 18.915 145.027 19.0539C144.826 19.0748 144.629 19.1182 144.438 19.1831L144.457 19.0908ZM170.948 17.5218L168.227 19.6815C167.758 19.189 167.158 18.8413 166.499 18.6792C165.839 18.5171 165.147 18.5474 164.505 18.7664C163.862 18.9855 163.294 19.3842 162.869 19.9158C162.444 20.4473 162.179 21.0897 162.105 21.7673V22.0626C162.105 23.6869 163.227 24.776 165.414 24.9236C173.834 25.4405 177.695 29.409 177.695 34.6512V34.9834C177.478 37.0582 176.671 39.0266 175.372 40.6545C174.072 42.2825 172.335 43.5014 170.365 44.1664C168.396 44.8314 166.278 44.9144 164.262 44.4055C162.247 43.8967 160.42 42.8175 158.998 41.2961L161.811 39.1181C162.466 39.8226 163.265 40.3757 164.154 40.739C165.043 41.1024 166 41.2673 166.959 41.2223C168.729 41.316 170.468 40.7193 171.811 39.5567C173.153 38.3942 173.997 36.7557 174.165 34.9834V34.725C174.165 29.7966 169.349 28.8922 165.175 28.4861C161.315 28.1169 158.539 25.6989 158.539 22.2103V22.0626C158.675 20.2463 159.501 18.5519 160.845 17.3291C162.189 16.1063 163.95 15.4484 165.764 15.4914C166.725 15.4629 167.681 15.6371 168.571 16.0028C169.461 16.3684 170.264 16.9173 170.93 17.6141L170.948 17.5218ZM192.09 41.0008C196.667 41.0008 200.289 36.0355 200.289 29.9258V15.1592H203.966V29.9258C203.966 38.0475 198.671 44.6002 192.163 44.6002C185.655 44.6002 180.361 38.0475 180.361 29.9258V15.1592H184.037V29.9258C183.89 36.1278 187.512 41.0931 192.071 41.0931L192.09 41.0008ZM232.185 44.6925H228.508V26.4188L220.033 37.4937L211.558 26.4188V44.7479H207.882V15.3991L220.015 31.4394L232.148 15.3991L232.185 44.6925Z" fill="#6F6D71"/>
<path d="M20.0174 10.9871C20.0174 8.32401 18.9638 5.76995 17.0882 3.88684C15.2127 2.00372 12.6689 0.945801 10.0165 0.945801C7.36413 0.945801 4.82036 2.00372 2.94482 3.88684C1.06929 5.76995 0.015625 8.32401 0.015625 10.9871V41.3511L8.25166 47.2762V61.7107H11.7814V47.2762L20.0174 41.3511V10.9871ZM16.4877 27.9688L11.7814 32.6941V28.2641L16.4877 23.5388V27.9688ZM3.61889 23.5388L8.3252 28.2641V32.6941L3.61889 27.9688V23.5388ZM16.4877 18.5181L10.0165 25.0155L3.54536 18.3705V13.9405L10.0165 20.4378L16.4877 13.9405V18.5181ZM10.0165 4.4898C11.4397 4.49612 12.8216 4.97069 13.9506 5.84082C15.0795 6.71095 15.8932 7.92865 16.2671 9.30743L10.0165 15.5648L3.76597 9.30743C4.12618 7.91493 4.93403 6.68073 6.0642 5.7963C7.19437 4.91187 8.58367 4.42666 10.0165 4.41596V4.4898ZM3.54536 39.5606V32.9156L8.25166 37.641V42.9201L3.54536 39.5606ZM11.7814 42.9385V37.641L16.4877 32.9156V39.5422L11.7814 42.9385Z" fill="#6F6D71"/>
</svg>
