<svg width="226" height="50" viewBox="0 0 226 50" fill="none" xmlns="http://www.w3.org/2000/svg">
<path d="M81.076 28.92V39H76.252V28.92L66.766 12.972H71.032C71.452 12.972 71.782 13.074 72.022 13.278C72.274 13.482 72.484 13.74 72.652 14.052L77.404 22.746C77.68 23.262 77.92 23.748 78.124 24.204C78.34 24.66 78.532 25.116 78.7 25.572C78.856 25.116 79.036 24.66 79.24 24.204C79.444 23.748 79.678 23.262 79.942 22.746L84.676 14.052C84.808 13.788 85.006 13.542 85.27 13.314C85.534 13.086 85.87 12.972 86.278 12.972H90.562L81.076 28.92ZM96.6336 20.244C98.0016 20.244 99.2436 20.466 100.36 20.91C101.488 21.354 102.448 21.984 103.24 22.8C104.044 23.616 104.662 24.612 105.094 25.788C105.526 26.964 105.742 28.278 105.742 29.73C105.742 31.194 105.526 32.514 105.094 33.69C104.662 34.866 104.044 35.868 103.24 36.696C102.448 37.524 101.488 38.16 100.36 38.604C99.2436 39.048 98.0016 39.27 96.6336 39.27C95.2536 39.27 93.9996 39.048 92.8716 38.604C91.7436 38.16 90.7776 37.524 89.9736 36.696C89.1816 35.868 88.5636 34.866 88.1196 33.69C87.6876 32.514 87.4716 31.194 87.4716 29.73C87.4716 28.278 87.6876 26.964 88.1196 25.788C88.5636 24.612 89.1816 23.616 89.9736 22.8C90.7776 21.984 91.7436 21.354 92.8716 20.91C93.9996 20.466 95.2536 20.244 96.6336 20.244ZM96.6336 35.85C98.1696 35.85 99.3036 35.334 100.036 34.302C100.78 33.27 101.152 31.758 101.152 29.766C101.152 27.774 100.78 26.256 100.036 25.212C99.3036 24.168 98.1696 23.646 96.6336 23.646C95.0736 23.646 93.9156 24.174 93.1596 25.23C92.4156 26.274 92.0436 27.786 92.0436 29.766C92.0436 31.746 92.4156 33.258 93.1596 34.302C93.9156 35.334 95.0736 35.85 96.6336 35.85ZM125.046 20.532V39H122.328C121.74 39 121.368 38.73 121.212 38.19L120.906 36.714C120.15 37.482 119.316 38.106 118.404 38.586C117.492 39.054 116.418 39.288 115.182 39.288C114.174 39.288 113.28 39.12 112.5 38.784C111.732 38.436 111.084 37.95 110.556 37.326C110.028 36.702 109.626 35.964 109.35 35.112C109.086 34.248 108.954 33.3 108.954 32.268V20.532H113.4V32.268C113.4 33.396 113.658 34.272 114.174 34.896C114.702 35.508 115.488 35.814 116.532 35.814C117.3 35.814 118.02 35.646 118.692 35.31C119.364 34.962 120 34.488 120.6 33.888V20.532H125.046ZM133.648 23.736C134.224 22.632 134.908 21.768 135.7 21.144C136.492 20.508 137.428 20.19 138.508 20.19C139.36 20.19 140.044 20.376 140.56 20.748L140.272 24.078C140.212 24.294 140.122 24.45 140.002 24.546C139.894 24.63 139.744 24.672 139.552 24.672C139.372 24.672 139.102 24.642 138.742 24.582C138.394 24.522 138.052 24.492 137.716 24.492C137.224 24.492 136.786 24.564 136.402 24.708C136.018 24.852 135.67 25.062 135.358 25.338C135.058 25.602 134.788 25.926 134.548 26.31C134.32 26.694 134.104 27.132 133.9 27.624V39H129.454V20.532H132.064C132.52 20.532 132.838 20.616 133.018 20.784C133.198 20.94 133.318 21.228 133.378 21.648L133.648 23.736ZM166.596 36.066V39H151.962V13.206H155.436V36.066H166.596ZM176.083 20.478C177.415 20.478 178.615 20.7 179.683 21.144C180.751 21.588 181.663 22.218 182.419 23.034C183.175 23.85 183.751 24.84 184.147 26.004C184.555 27.156 184.759 28.446 184.759 29.874C184.759 31.314 184.555 32.61 184.147 33.762C183.751 34.914 183.175 35.898 182.419 36.714C181.663 37.53 180.751 38.16 179.683 38.604C178.615 39.036 177.415 39.252 176.083 39.252C174.739 39.252 173.527 39.036 172.447 38.604C171.379 38.16 170.467 37.53 169.711 36.714C168.955 35.898 168.373 34.914 167.965 33.762C167.569 32.61 167.371 31.314 167.371 29.874C167.371 28.446 167.569 27.156 167.965 26.004C168.373 24.84 168.955 23.85 169.711 23.034C170.467 22.218 171.379 21.588 172.447 21.144C173.527 20.7 174.739 20.478 176.083 20.478ZM176.083 36.75C177.883 36.75 179.227 36.15 180.115 34.95C181.003 33.738 181.447 32.052 181.447 29.892C181.447 27.72 181.003 26.028 180.115 24.816C179.227 23.604 177.883 22.998 176.083 22.998C175.171 22.998 174.373 23.154 173.689 23.466C173.017 23.778 172.453 24.228 171.997 24.816C171.553 25.404 171.217 26.13 170.989 26.994C170.773 27.846 170.665 28.812 170.665 29.892C170.665 32.052 171.109 33.738 171.997 34.95C172.897 36.15 174.259 36.75 176.083 36.75ZM195.072 30.09C195.72 30.09 196.29 30 196.782 29.82C197.274 29.64 197.688 29.388 198.024 29.064C198.36 28.74 198.612 28.356 198.78 27.912C198.948 27.456 199.032 26.958 199.032 26.418C199.032 25.302 198.69 24.414 198.006 23.754C197.334 23.094 196.356 22.764 195.072 22.764C193.776 22.764 192.786 23.094 192.102 23.754C191.43 24.414 191.094 25.302 191.094 26.418C191.094 26.958 191.178 27.456 191.346 27.912C191.526 28.356 191.784 28.74 192.12 29.064C192.456 29.388 192.87 29.64 193.362 29.82C193.854 30 194.424 30.09 195.072 30.09ZM200.85 39.99C200.85 39.546 200.724 39.186 200.472 38.91C200.22 38.634 199.878 38.418 199.446 38.262C199.026 38.106 198.534 37.998 197.97 37.938C197.406 37.866 196.806 37.812 196.17 37.776C195.546 37.74 194.91 37.704 194.262 37.668C193.614 37.632 192.99 37.572 192.39 37.488C191.718 37.8 191.166 38.196 190.734 38.676C190.314 39.144 190.104 39.696 190.104 40.332C190.104 40.74 190.206 41.118 190.41 41.466C190.626 41.826 190.95 42.132 191.382 42.384C191.814 42.648 192.354 42.852 193.002 42.996C193.662 43.152 194.436 43.23 195.324 43.23C196.188 43.23 196.962 43.152 197.646 42.996C198.33 42.84 198.906 42.618 199.374 42.33C199.854 42.042 200.22 41.7 200.472 41.304C200.724 40.908 200.85 40.47 200.85 39.99ZM204.108 21.486V22.674C204.108 23.07 203.856 23.322 203.352 23.43L201.282 23.7C201.69 24.492 201.894 25.368 201.894 26.328C201.894 27.216 201.72 28.026 201.372 28.758C201.036 29.478 200.568 30.096 199.968 30.612C199.368 31.128 198.648 31.524 197.808 31.8C196.968 32.076 196.056 32.214 195.072 32.214C194.22 32.214 193.416 32.112 192.66 31.908C192.276 32.148 191.982 32.406 191.778 32.682C191.574 32.946 191.472 33.216 191.472 33.492C191.472 33.924 191.646 34.254 191.994 34.482C192.354 34.698 192.822 34.854 193.398 34.95C193.974 35.046 194.628 35.106 195.36 35.13C196.104 35.154 196.86 35.196 197.628 35.256C198.408 35.304 199.164 35.394 199.896 35.526C200.64 35.658 201.3 35.874 201.876 36.174C202.452 36.474 202.914 36.888 203.262 37.416C203.622 37.944 203.802 38.628 203.802 39.468C203.802 40.248 203.604 41.004 203.208 41.736C202.824 42.468 202.266 43.116 201.534 43.68C200.802 44.256 199.902 44.712 198.834 45.048C197.778 45.396 196.584 45.57 195.252 45.57C193.92 45.57 192.756 45.438 191.76 45.174C190.764 44.91 189.936 44.556 189.276 44.112C188.616 43.668 188.118 43.152 187.782 42.564C187.458 41.988 187.296 41.382 187.296 40.746C187.296 39.846 187.578 39.084 188.142 38.46C188.706 37.836 189.48 37.338 190.464 36.966C189.924 36.726 189.492 36.408 189.168 36.012C188.856 35.604 188.7 35.058 188.7 34.374C188.7 34.11 188.748 33.84 188.844 33.564C188.94 33.276 189.084 32.994 189.276 32.718C189.48 32.43 189.726 32.16 190.014 31.908C190.302 31.656 190.638 31.434 191.022 31.242C190.122 30.738 189.42 30.072 188.916 29.244C188.412 28.404 188.16 27.432 188.16 26.328C188.16 25.44 188.328 24.636 188.664 23.916C189.012 23.184 189.492 22.566 190.104 22.062C190.716 21.546 191.442 21.15 192.282 20.874C193.134 20.598 194.064 20.46 195.072 20.46C195.864 20.46 196.602 20.55 197.286 20.73C197.97 20.898 198.594 21.15 199.158 21.486H204.108ZM214.826 20.478C216.158 20.478 217.358 20.7 218.426 21.144C219.494 21.588 220.406 22.218 221.162 23.034C221.918 23.85 222.494 24.84 222.89 26.004C223.298 27.156 223.502 28.446 223.502 29.874C223.502 31.314 223.298 32.61 222.89 33.762C222.494 34.914 221.918 35.898 221.162 36.714C220.406 37.53 219.494 38.16 218.426 38.604C217.358 39.036 216.158 39.252 214.826 39.252C213.482 39.252 212.27 39.036 211.19 38.604C210.122 38.16 209.21 37.53 208.454 36.714C207.698 35.898 207.116 34.914 206.708 33.762C206.312 32.61 206.114 31.314 206.114 29.874C206.114 28.446 206.312 27.156 206.708 26.004C207.116 24.84 207.698 23.85 208.454 23.034C209.21 22.218 210.122 21.588 211.19 21.144C212.27 20.7 213.482 20.478 214.826 20.478ZM214.826 36.75C216.626 36.75 217.97 36.15 218.858 34.95C219.746 33.738 220.19 32.052 220.19 29.892C220.19 27.72 219.746 26.028 218.858 24.816C217.97 23.604 216.626 22.998 214.826 22.998C213.914 22.998 213.116 23.154 212.432 23.466C211.76 23.778 211.196 24.228 210.74 24.816C210.296 25.404 209.96 26.13 209.732 26.994C209.516 27.846 209.408 28.812 209.408 29.892C209.408 32.052 209.852 33.738 210.74 34.95C211.64 36.15 213.002 36.75 214.826 36.75Z" fill="url(#paint0_linear)"/>
<path d="M11.8726 21.2664C10.8349 21.7188 9.68919 21.9697 8.48489 21.9697C3.79881 21.9697 0 18.1709 0 13.4848C0 8.7988 3.79881 5 8.48489 5C13.171 5 16.9698 8.7988 16.9698 13.4848C16.9698 14.6892 16.7189 15.8349 16.2665 16.8725L28.1275 28.7335C29.1652 28.2812 30.3108 28.0303 31.5151 28.0303C36.2012 28.0303 40 31.8291 40 36.5152C40 41.2012 36.2012 45 31.5151 45C26.829 45 23.0302 41.2012 23.0302 36.5152C23.0302 35.3108 23.2811 34.1651 23.7336 33.1274L11.8726 21.2664Z" fill="url(#paint1_linear)"/>
<path d="M15.3534 36.5152C15.3534 40.3086 12.2782 43.3838 8.48469 43.3838C4.6912 43.3838 1.61597 40.3086 1.61597 36.5152C1.61597 32.7217 4.6912 29.6465 8.48469 29.6465C12.2782 29.6465 15.3534 32.7217 15.3534 36.5152Z" fill="url(#paint2_linear)"/>
<path d="M31.5151 20.3535C35.3086 20.3535 38.3838 17.2783 38.3838 13.4848C38.3838 9.69138 35.3086 6.61616 31.5151 6.61616C27.7216 6.61616 24.6464 9.69138 24.6464 13.4848C24.6464 17.2783 27.7216 20.3535 31.5151 20.3535Z" fill="url(#paint3_linear)"/>
<defs>
<linearGradient id="paint0_linear" x1="197.801" y1="68.75" x2="100.989" y2="-21.7603" gradientUnits="userSpaceOnUse">
<stop stop-color="#FF7EB3"/>
<stop offset="1" stop-color="#FF758C"/>
</linearGradient>
<linearGradient id="paint1_linear" x1="32.906" y1="60" x2="-9.10579" y2="47.6488" gradientUnits="userSpaceOnUse">
<stop stop-color="#FF7EB3"/>
<stop offset="1" stop-color="#FF758C"/>
</linearGradient>
<linearGradient id="paint2_linear" x1="32.906" y1="60" x2="-9.10579" y2="47.6488" gradientUnits="userSpaceOnUse">
<stop stop-color="#FF7EB3"/>
<stop offset="1" stop-color="#FF758C"/>
</linearGradient>
<linearGradient id="paint3_linear" x1="32.906" y1="60" x2="-9.10579" y2="47.6488" gradientUnits="userSpaceOnUse">
<stop stop-color="#FF7EB3"/>
<stop offset="1" stop-color="#FF758C"/>
</linearGradient>
</defs>
</svg>
