<svg width="234" height="55" viewBox="0 0 234 55" fill="none" xmlns="http://www.w3.org/2000/svg">
<path d="M66.5898 16.6965H72.4911V40.6923H66.5898V16.6965ZM74.8443 31.6662C74.8443 25.7226 78.5211 22.1602 84.0363 22.1602C89.5514 22.1602 93.2282 25.7226 93.2282 31.6662C93.2282 37.6098 89.6801 41.2091 84.0363 41.2091C78.3924 41.2091 74.8443 37.739 74.8443 31.6662ZM87.3821 31.6662C87.3821 28.3991 86.1136 26.4794 84.0914 26.4794C82.0692 26.4794 80.8191 28.3252 80.8191 31.6662C80.8191 35.0071 82.0692 36.8345 84.0914 36.8345C86.1136 36.8345 87.4189 35.0071 87.4189 31.6846L87.3821 31.6662ZM95.5814 41.929H101.28C101.54 42.545 101.993 43.0589 102.571 43.3922C103.148 43.7255 103.818 43.8599 104.479 43.7748C106.74 43.7748 107.917 42.5566 107.917 40.7477V37.4252H107.935C107.448 38.4597 106.661 39.322 105.677 39.8986C104.692 40.4752 103.557 40.739 102.42 40.6554C98.1 40.6554 95.2321 37.3513 95.2321 31.6662C95.2321 25.981 97.9713 22.437 102.586 22.437C103.751 22.3744 104.908 22.6763 105.896 23.3011C106.883 23.9259 107.654 24.8428 108.101 25.9256H107.935V22.5847H113.782V40.5631C113.782 44.9008 109.958 47.6142 104.332 47.6142C99.2214 47.5957 95.9491 45.2515 95.6182 41.9475L95.5814 41.929ZM107.935 31.6662C107.935 28.7682 106.612 26.9409 104.516 26.9409C102.42 26.9409 101.133 28.7867 101.133 31.6662C101.133 34.5457 102.402 36.2438 104.516 36.2438C106.63 36.2438 107.935 34.6749 107.935 31.6662ZM116.116 31.6662C116.116 25.7226 119.793 22.1602 125.308 22.1602C130.823 22.1602 134.5 25.7226 134.5 31.6662C134.5 37.6098 130.934 41.2091 125.308 41.2091C119.683 41.2091 116.153 37.739 116.153 31.6662H116.116ZM128.654 31.6662C128.654 28.3991 127.367 26.4794 125.363 26.4794C123.36 26.4794 122.091 28.3252 122.091 31.6662C122.091 35.0071 123.341 36.8345 125.363 36.8345C127.386 36.8345 128.691 35.0071 128.691 31.6846L128.654 31.6662ZM136.89 18.2101C136.865 17.6065 137.019 17.0091 137.335 16.4946C137.65 15.98 138.111 15.572 138.659 15.3229C139.208 15.0739 139.817 14.9952 140.411 15.097C141.004 15.1988 141.553 15.4764 141.987 15.8942C142.422 16.3119 142.722 16.8507 142.849 17.4412C142.976 18.0316 142.925 18.6468 142.701 19.2075C142.477 19.7682 142.091 20.2488 141.593 20.5875C141.095 20.9262 140.507 21.1075 139.905 21.108C139.521 21.1178 139.138 21.0509 138.78 20.911C138.421 20.7712 138.094 20.5612 137.817 20.2933C137.54 20.0254 137.318 19.705 137.166 19.3505C137.013 18.9961 136.932 18.6147 136.927 18.2285L136.89 18.2101ZM136.89 22.5662H142.865V40.7661H136.982L136.89 22.5662ZM164.356 31.6662C164.356 37.5913 161.709 41.0245 157.205 41.0245C156.051 41.096 154.904 40.8103 153.918 40.2063C152.932 39.6022 152.154 38.7088 151.689 37.6467H151.579V46.6174H145.678V22.6216H151.542V25.8703H151.653C152.101 24.7873 152.871 23.8694 153.858 23.2418C154.845 22.6143 156.001 22.3074 157.168 22.3632C161.801 22.3263 164.466 25.7411 164.466 31.6846L164.356 31.6662ZM158.344 31.6662C158.344 28.7867 157.002 26.9224 154.925 26.9224C152.848 26.9224 151.542 28.7682 151.524 31.6662C151.505 34.5641 152.848 36.3915 154.925 36.3915C157.002 36.3915 158.455 34.6749 158.455 31.6846L158.344 31.6662ZM174.43 22.1417C179.376 22.1417 182.446 24.4859 182.483 28.2514H177.096C177.096 26.9409 176.011 26.1287 174.394 26.1287C172.776 26.1287 172.004 26.7563 172.004 27.6976C172.004 28.639 172.684 28.9344 174.044 29.2112L177.831 29.9865C181.508 30.7617 182.979 32.2384 182.979 34.9887C182.979 38.6803 179.578 41.1907 174.522 41.1907C169.467 41.1907 166.176 38.7542 165.937 35.0441H171.654C171.82 36.3915 172.886 37.1852 174.614 37.1852C176.342 37.1852 177.151 36.6315 177.151 35.6532C177.151 34.6749 176.6 34.5088 175.184 34.2134L171.765 33.4936C168.217 32.7368 166.36 30.8725 166.36 28.0853C166.47 24.4674 169.559 22.1602 174.541 22.1602L174.43 22.1417ZM202.742 40.7477H197.024V37.3329H196.914C196.594 38.4719 195.897 39.4674 194.938 40.1552C193.979 40.8431 192.815 41.1823 191.638 41.1168C190.749 41.1459 189.865 40.9859 189.042 40.6475C188.219 40.3091 187.477 39.7998 186.864 39.1532C186.251 38.5065 185.782 37.737 185.486 36.8952C185.19 36.0535 185.075 35.1584 185.148 34.2688V22.5847H191.049V32.9952C191.049 35.1363 192.171 36.2992 194.009 36.2992C194.441 36.296 194.866 36.1998 195.257 36.0173C195.648 35.8348 195.996 35.5701 196.277 35.2412C196.557 34.9122 196.764 34.5267 196.884 34.1106C197.003 33.6945 197.032 33.2575 196.969 32.8291V22.5847H202.852L202.742 40.7477ZM205.591 22.5662H211.327V26.0733H211.456C211.773 24.9498 212.452 23.9636 213.386 23.2689C214.321 22.5741 215.459 22.2102 216.622 22.234C217.789 22.1321 218.952 22.471 219.883 23.1845C220.815 23.8979 221.448 24.9346 221.659 26.0918H221.916C222.284 24.9284 223.023 23.9195 224.021 23.2218C225.018 22.5242 226.217 22.1769 227.431 22.234C228.238 22.2031 229.043 22.3438 229.792 22.6466C230.541 22.9495 231.218 23.4078 231.779 23.9915C232.339 24.5752 232.771 25.2712 233.045 26.034C233.319 26.7967 233.429 27.6089 233.369 28.4175V40.7661H227.431V29.9311C227.431 28.0853 226.567 27.0516 224.894 27.0516C224.523 27.0455 224.155 27.12 223.816 27.27C223.476 27.4201 223.173 27.6421 222.926 27.9209C222.68 28.1996 222.497 28.5286 222.389 28.8851C222.282 29.2416 222.252 29.6173 222.302 29.9865V40.7661H216.677V29.8757C216.677 28.0299 215.776 27.0516 214.158 27.0516C213.783 27.0486 213.412 27.1262 213.069 27.2791C212.727 27.432 212.421 27.6567 212.172 27.9382C211.923 28.2197 211.737 28.5514 211.626 28.911C211.515 29.2706 211.482 29.6499 211.529 30.0234V40.7661H205.628L205.591 22.5662Z" fill="#6F6D71"/>
<path d="M54.9159 18.2655C54.9161 14.5918 53.8112 11.0036 51.7459 7.97099C49.6806 4.93839 46.7512 2.60278 43.3415 1.27008C39.9318 -0.0626152 36.2006 -0.330264 32.6368 0.50219C29.073 1.33464 25.8427 3.22839 23.369 5.93538H0.425781V54.5545H48.8676V31.8324C50.7689 30.1249 52.2903 28.0341 53.3325 25.6964C54.3746 23.3588 54.9142 20.8267 54.9159 18.2655ZM45.5952 18.2655C45.5989 20.0259 45.0823 21.7479 44.1108 23.2134C43.1394 24.6789 41.7567 25.8221 40.1379 26.4983C38.5191 27.1746 36.7368 27.3534 35.0167 27.0122C33.2967 26.671 31.716 25.8251 30.475 24.5816C29.2339 23.3381 28.3881 21.7528 28.0447 20.0265C27.7013 18.3001 27.8757 16.5103 28.5458 14.8836C29.216 13.2568 30.3517 11.8662 31.8093 10.8878C33.2669 9.90934 34.9808 9.38708 36.7342 9.38708C39.0811 9.38707 41.3322 10.3219 42.9934 11.9864C44.6547 13.6509 45.5904 15.9091 45.5952 18.2655ZM39.5469 45.1962H9.74646V15.2937H18.8282C18.6527 16.2747 18.5605 17.2689 18.5524 18.2655C18.5573 23.1056 20.4744 27.7461 23.8831 31.1685C27.2918 34.591 31.9136 36.5159 36.7342 36.5208C37.6766 36.5158 38.6171 36.4355 39.5469 36.2808V45.1962Z" fill="#6F6D71"/>
</svg>
