<svg width="219" height="51" viewBox="0 0 219 51" fill="none" xmlns="http://www.w3.org/2000/svg">
<path d="M63.5859 14.346H69.1011V36.7359H63.5859V14.346ZM71.2888 28.282C71.2888 22.7445 74.6715 19.4405 79.8925 19.4405C85.1136 19.4405 88.4962 22.7445 88.4962 28.282C88.4962 33.8195 85.1871 37.142 79.8925 37.142C74.5979 37.142 71.2888 33.9118 71.2888 28.282ZM82.9627 28.282C82.9627 25.2364 81.7677 23.446 79.8925 23.446C78.0174 23.446 76.8408 25.2918 76.8408 28.282C76.8408 31.2723 77.999 33.0812 79.8925 33.0812C81.7861 33.0812 82.9627 31.383 82.9627 28.3005V28.282ZM90.5736 37.825H95.8682C96.1202 38.387 96.5462 38.8524 97.0828 39.1517C97.6195 39.451 98.238 39.5684 98.8464 39.4862C100.942 39.4862 102.045 38.3418 102.045 36.6806V33.5796H101.935C101.496 34.53 100.782 35.3264 99.8879 35.8659C98.9933 36.4055 97.9582 36.6636 96.9161 36.6067C92.89 36.6067 90.2243 33.5242 90.2243 28.2267C90.2243 22.9291 92.7613 19.5882 96.9897 19.5882C98.0644 19.5459 99.1263 19.8344 100.033 20.415C100.94 20.9956 101.648 21.8406 102.064 22.8368V19.7543H107.579V36.5513C107.579 40.5937 104.031 43.104 98.7913 43.104C93.9195 43.104 90.8862 40.9075 90.5736 37.8434V37.825ZM102.064 28.2636C102.064 25.5687 100.832 23.8705 98.8832 23.8705C96.9345 23.8705 95.7395 25.5502 95.7395 28.2636C95.7395 30.9769 96.9161 32.509 98.8832 32.509C100.85 32.509 102.064 31.0139 102.064 28.282V28.2636ZM109.656 28.2636C109.656 22.7261 113.039 19.4221 118.26 19.4221C123.481 19.4221 126.882 22.7261 126.882 28.2636C126.882 33.8011 123.573 37.1236 118.26 37.1236C112.947 37.1236 109.656 33.9118 109.656 28.282V28.2636ZM121.33 28.2636C121.33 25.218 120.135 23.4275 118.26 23.4275C116.385 23.4275 115.3 25.2918 115.3 28.3005C115.3 31.3092 116.458 33.0996 118.333 33.0996C120.209 33.0996 121.33 31.383 121.33 28.3005V28.2636ZM128.978 15.7304C128.963 15.1713 129.115 14.6205 129.412 14.1478C129.71 13.6751 130.141 13.3018 130.65 13.0752C131.159 12.8486 131.724 12.7789 132.273 12.875C132.822 12.9711 133.33 13.2286 133.732 13.6149C134.135 14.0012 134.415 14.4989 134.535 15.0448C134.656 15.5908 134.613 16.1605 134.411 16.6817C134.209 17.2028 133.857 17.652 133.4 17.9723C132.944 18.2926 132.403 18.4695 131.846 18.4807C131.477 18.5061 131.106 18.4547 130.758 18.3295C130.409 18.2044 130.09 18.0082 129.821 17.7534C129.552 17.4986 129.338 17.1907 129.193 16.8489C129.048 16.5071 128.974 16.1388 128.978 15.7673V15.7304ZM128.978 19.7912H134.493V36.7359H128.978V19.7912ZM154.513 28.2636C154.513 33.8011 152.068 36.9574 147.877 36.9574C146.802 37.0267 145.732 36.7629 144.811 36.2017C143.89 35.6405 143.164 34.8089 142.729 33.8195H142.619V42.1627H137.104V19.7543H142.619V22.7815H142.729C143.143 21.7757 143.856 20.9225 144.771 20.3379C145.685 19.7534 146.757 19.4658 147.84 19.5143C152.068 19.5882 154.587 22.763 154.587 28.3005L154.513 28.2636ZM148.998 28.2636C148.998 25.5687 147.766 23.852 145.836 23.852C143.906 23.852 142.674 25.5871 142.655 28.2636C142.637 30.94 143.906 32.6567 145.836 32.6567C147.766 32.6567 148.998 30.9769 148.998 28.3005V28.2636ZM163.981 19.4036C168.559 19.4036 171.335 21.5817 171.463 25.0703H166.444C166.444 23.8705 165.452 23.1137 163.926 23.1137C162.4 23.1137 161.72 23.7044 161.72 24.5719C161.72 25.4395 162.326 25.7163 163.558 25.9747L167.088 26.6946C170.452 27.4145 171.886 28.7804 171.886 31.3461C171.886 34.8532 168.706 37.1051 164.018 37.1051C159.33 37.1051 156.26 34.8532 156.021 31.4015H161.334C161.499 32.6567 162.492 33.395 164.11 33.395C165.727 33.395 166.463 32.8597 166.463 31.9737C166.463 31.0877 165.948 30.9031 164.624 30.6262L161.444 29.9433C158.153 29.2603 156.425 27.5068 156.425 24.9226C156.462 21.6001 159.422 19.4405 163.981 19.4405V19.4036ZM190.288 36.699H184.975V33.5426H184.865C184.573 34.6024 183.929 35.5299 183.039 36.1712C182.15 36.8126 181.068 37.1291 179.975 37.0682C179.137 37.116 178.299 36.9827 177.516 36.6772C176.734 36.3718 176.026 35.9014 175.441 35.2977C174.855 34.694 174.406 33.9711 174.122 33.178C173.839 32.3848 173.728 31.5398 173.798 30.7001V19.7543H179.313V29.4265C179.313 31.4384 180.343 32.509 182.052 32.509C182.453 32.5098 182.85 32.4246 183.215 32.259C183.581 32.0934 183.907 31.8513 184.171 31.5489C184.436 31.2465 184.633 30.8908 184.749 30.5057C184.866 30.1205 184.899 29.7148 184.847 29.3157V19.7543H190.362L190.288 36.699ZM192.954 19.7543H198.285V23.0214H198.396C198.688 21.9757 199.318 21.057 200.186 20.409C201.055 19.761 202.112 19.4204 203.194 19.4405C204.294 19.352 205.388 19.6827 206.256 20.3667C207.125 21.0508 207.705 22.0381 207.882 23.1322H207.992C208.326 22.0264 209.016 21.0635 209.955 20.3951C210.893 19.7268 212.027 19.3909 213.176 19.4405C213.927 19.4152 214.673 19.5486 215.369 19.8321C216.064 20.1156 216.692 20.5428 217.212 21.0859C217.733 21.629 218.133 22.276 218.388 22.9847C218.643 23.6934 218.746 24.448 218.692 25.1995V36.7359H213.176V26.6762C213.176 24.8303 212.349 23.9813 210.805 23.9813C210.461 23.9783 210.12 24.0496 209.805 24.1902C209.49 24.3309 209.209 24.5376 208.981 24.7965C208.753 25.0555 208.583 25.3605 208.482 25.6911C208.381 26.0217 208.352 26.3702 208.397 26.7131V36.7359H203.157V26.6023C203.157 24.9042 202.33 23.9813 200.822 23.9813C200.474 23.9814 200.13 24.0556 199.812 24.1991C199.495 24.3426 199.211 24.5521 198.98 24.8137C198.749 25.0754 198.576 25.3832 198.472 25.717C198.368 26.0507 198.336 26.4028 198.377 26.75V36.7359H192.862L192.954 19.7543Z" fill="#6F6D71"/>
<path d="M48.1624 15.3607C47.2268 13.2128 45.9886 11.2112 44.4856 9.41715C42.2638 6.68595 39.4912 4.45814 36.3501 2.88035C33.209 1.30256 29.7707 0.410563 26.2616 0.263067C22.7524 0.115571 19.2519 0.715915 15.9905 2.0246C12.729 3.33328 9.78062 5.32062 7.33926 7.85582C4.89791 10.391 3.01898 13.4166 1.82613 16.7334C0.633283 20.0502 0.153564 23.5831 0.418554 27.0995C0.683543 30.6159 1.68723 34.036 3.36355 37.1349C5.03988 40.2337 7.35083 42.941 10.1443 45.0785C11.9368 46.4775 13.9174 47.6147 16.0272 48.4564C18.9852 49.6735 22.1511 50.3004 25.3479 50.3022C31.9466 50.2876 38.2704 47.6466 42.933 42.9583C47.5956 38.2699 50.2166 31.9167 50.2214 25.2913C50.2262 21.8738 49.5252 18.4924 48.1624 15.3607ZM25.3295 5.33787C28.2002 5.33756 31.0363 5.96755 33.6391 7.18369C33.0044 7.45903 32.3371 7.65134 31.6536 7.7559C29.4045 8.08279 27.321 9.13119 25.714 10.7446C24.1071 12.358 23.0629 14.45 22.7373 16.7082C22.5944 17.9746 22.0208 19.1528 21.1131 20.0439C20.2055 20.935 19.0195 21.4845 17.7553 21.5996C15.5062 21.9265 13.4227 22.9749 11.8157 24.5883C10.2088 26.2017 9.16462 28.2937 8.83905 30.5519C8.72882 31.7561 8.2171 32.8877 7.38671 33.7636C5.95397 30.724 5.31034 27.3699 5.51573 24.0134C5.72111 20.6569 6.76883 17.4072 8.56139 14.5665C10.354 11.7259 12.8331 9.38673 15.7681 7.7667C18.7031 6.14667 21.9986 5.29844 25.3479 5.30095L25.3295 5.33787ZM10.1259 38.2121C10.3465 38.009 10.5671 37.8244 10.7878 37.6029C12.4233 36.0108 13.4731 33.9092 13.766 31.6409C13.8847 30.3659 14.4517 29.175 15.3654 28.2815C16.2446 27.3626 17.428 26.798 18.6929 26.6941C20.942 26.3672 23.0255 25.3188 24.6324 23.7054C26.2394 22.092 27.2835 20 27.6091 17.7418C27.6886 16.4082 28.2586 15.1518 29.2085 14.2163C30.1094 13.3153 31.3041 12.7712 32.5728 12.6843C34.639 12.3988 36.566 11.4766 38.088 10.0447C39.8209 11.4883 41.2892 13.2249 42.4266 15.1761C42.3567 15.2709 42.2766 15.3576 42.1876 15.4345C41.3101 16.3615 40.1282 16.9385 38.8601 17.0589C36.6087 17.3801 34.522 18.4266 32.9141 20.0411C31.3061 21.6555 30.2638 23.7506 29.9439 26.0111C29.8143 27.2819 29.2512 28.4685 28.3499 29.3701C27.4486 30.2716 26.2647 30.8326 24.9986 30.958C22.7429 31.2823 20.6516 32.3286 19.0354 33.9414C17.4191 35.5542 16.3642 37.6475 16.0272 39.9102C15.9283 40.8123 15.6197 41.6785 15.1264 42.439C13.2402 41.3146 11.5508 39.8866 10.1259 38.2121ZM25.3295 45.3369C23.464 45.339 21.6075 45.078 19.8143 44.5617C20.4277 43.4136 20.8265 42.1624 20.9909 40.87C21.1197 39.6022 21.6802 38.4177 22.5777 37.5165C23.4753 36.6153 24.655 36.0526 25.9178 35.9232C28.1702 35.6 30.2579 34.5532 31.8684 32.9395C33.479 31.3258 34.5258 29.2318 34.8524 26.971C34.9812 25.7031 35.5417 24.5186 36.4393 23.6174C37.3368 22.7163 38.5165 22.1535 39.7793 22.0241C41.4743 21.8028 43.0899 21.1691 44.4856 20.1783C45.2606 23.1278 45.3524 26.2163 44.754 29.2069C44.1555 32.1975 42.8828 35.0108 41.0333 37.4308C39.1839 39.8509 36.8069 41.8134 34.0847 43.1679C31.3626 44.5224 28.3676 45.2328 25.3295 45.2447V45.3369Z" fill="#6F6D71"/>
</svg>
