<svg width="240" height="55" viewBox="0 0 240 55" fill="none" xmlns="http://www.w3.org/2000/svg">
<path d="M57.9648 12.9863H63.4943V39.6586H57.9648V12.9863Z" fill="#6F6D71"/>
<path d="M66.5907 30.5215C66.5908 28.6025 67.1597 26.7268 68.2254 25.132C69.2912 23.5372 70.8057 22.2952 72.5771 21.5634C74.3485 20.8316 76.2969 20.6429 78.1755 21.0214C80.0541 21.3998 81.7781 22.3282 83.1292 23.689C84.4802 25.0498 85.3975 26.7817 85.7646 28.6651C86.1317 30.5486 85.9321 32.4987 85.1913 34.2685C84.4504 36.0382 83.2015 37.5478 81.603 38.606C80.0044 39.6641 78.1281 40.2231 76.212 40.2121C74.9411 40.2221 73.6809 39.9778 72.5055 39.4936C71.3301 39.0095 70.2631 38.2951 69.3669 37.3926C68.4708 36.49 67.7637 35.4173 67.2869 34.2374C66.8102 33.0575 66.5735 31.7942 66.5907 30.5215ZM80.4512 30.5215C80.4295 29.6942 80.1646 28.8917 79.6899 28.2143C79.2151 27.537 78.5514 27.0148 77.7819 26.7132C77.0123 26.4116 76.1711 26.3439 75.3633 26.5186C74.5555 26.6933 73.8171 27.1026 73.2404 27.6953C72.6637 28.288 72.2743 29.0379 72.1209 29.8511C71.9675 30.6643 72.057 31.5048 72.378 32.2673C72.6991 33.0299 73.2375 33.6807 73.926 34.1385C74.6145 34.5962 75.4224 34.8405 76.2488 34.8408C76.8115 34.8517 77.3703 34.7464 77.8905 34.5313C78.4106 34.3161 78.8808 33.9959 79.2718 33.5905C79.6627 33.1851 79.966 32.7034 80.1626 32.1753C80.3592 31.6473 80.4449 31.0843 80.4144 30.5215H80.4512Z" fill="#6F6D71"/>
<path d="M107.709 21.385V38.7543C107.709 44.8825 102.917 47.4851 98.0694 47.4851C96.3596 47.6257 94.6445 47.2855 93.1173 46.5028C91.5901 45.7202 90.3113 44.5261 89.425 43.0551L94.0882 40.3602C94.4661 41.1232 95.0671 41.7527 95.8113 42.1649C96.5555 42.5771 97.4075 42.7525 98.2537 42.6675C98.7928 42.734 99.3399 42.6804 99.8558 42.5105C100.372 42.3406 100.844 42.0587 101.238 41.6848C101.633 41.3109 101.94 40.8543 102.138 40.3477C102.336 39.8411 102.419 39.297 102.382 38.7543V37.0746C101.739 37.8559 100.922 38.4762 99.9978 38.8864C99.0732 39.2965 98.0658 39.4851 97.0557 39.4373C94.6115 39.4373 92.2674 38.4649 90.5391 36.7341C88.8108 35.0033 87.8398 32.6559 87.8398 30.2081C87.8398 27.7604 88.8108 25.4129 90.5391 23.6821C92.2674 21.9513 94.6115 20.979 97.0557 20.979C98.0658 20.9311 99.0732 21.1197 99.9978 21.5299C100.922 21.94 101.739 22.5603 102.382 23.3416V21.4958L107.709 21.385ZM102.382 30.1527C102.419 29.2696 102.191 28.3957 101.728 27.6433C101.265 26.891 100.588 26.2945 99.7833 25.9308C98.9789 25.567 98.0842 25.4525 97.2144 25.602C96.3445 25.7515 95.5392 26.1582 94.9019 26.7698C94.2647 27.3813 93.8247 28.1698 93.6386 29.0338C93.4524 29.8977 93.5286 30.7978 93.8573 31.618C94.186 32.4383 94.7522 33.1414 95.4831 33.6368C96.214 34.1323 97.0762 34.3974 97.9588 34.3982C98.5347 34.4397 99.1129 34.3598 99.6561 34.1637C100.199 33.9675 100.695 33.6594 101.112 33.2594C101.529 32.8593 101.857 32.3761 102.076 31.841C102.295 31.3059 102.399 30.7307 102.382 30.1527Z" fill="#6F6D71"/>
<path d="M110.825 30.5217C110.825 28.6042 111.393 26.7299 112.457 25.1359C113.521 23.5419 115.033 22.2999 116.803 21.5669C118.572 20.834 120.518 20.6432 122.396 21.0186C124.274 21.394 125.998 22.3188 127.35 23.6759C128.703 25.033 129.623 26.7614 129.994 28.6424C130.366 30.5235 130.171 32.4725 129.436 34.2429C128.701 36.0133 127.458 37.5255 125.864 38.5881C124.27 39.6507 122.398 40.2159 120.483 40.2123C119.21 40.2246 117.947 39.9823 116.768 39.4994C115.59 39.0166 114.519 38.303 113.62 37.4004C112.72 36.4978 112.009 35.4244 111.53 34.2432C111.05 33.0621 110.81 31.7968 110.825 30.5217ZM124.685 30.5217C124.664 29.6936 124.398 28.8903 123.923 28.2126C123.447 27.5349 122.782 27.0128 122.012 26.7117C121.241 26.4107 120.399 26.344 119.591 26.5202C118.782 26.6964 118.044 27.1075 117.468 27.7021C116.892 28.2967 116.504 29.0482 116.353 29.8626C116.202 30.677 116.294 31.518 116.618 32.2803C116.941 33.0425 117.483 33.692 118.174 34.1475C118.865 34.6031 119.674 34.8442 120.501 34.8409C121.064 34.8519 121.623 34.7465 122.143 34.5314C122.663 34.3163 123.133 33.996 123.524 33.5907C123.915 33.1853 124.219 32.7035 124.415 32.1754C124.612 31.6474 124.698 31.0844 124.667 30.5217H124.685Z" fill="#6F6D71"/>
<path d="M132.703 16.4936C132.703 15.8438 132.896 15.2085 133.256 14.6682C133.617 14.1279 134.129 13.7068 134.728 13.4581C135.328 13.2094 135.988 13.1444 136.624 13.2711C137.26 13.3979 137.845 13.7108 138.304 14.1703C138.763 14.6298 139.075 15.2153 139.202 15.8526C139.328 16.4899 139.263 17.1506 139.015 17.7509C138.767 18.3513 138.346 18.8644 137.807 19.2254C137.267 19.5865 136.633 19.7792 135.984 19.7792C135.117 19.7696 134.288 19.4203 133.675 18.8062C133.061 18.1921 132.713 17.362 132.703 16.4936ZM133.238 21.385H138.767V39.6588H133.238V21.385Z" fill="#6F6D71"/>
<path d="M162.433 30.5217C162.495 31.737 162.316 32.9525 161.907 34.0984C161.498 35.2443 160.867 36.2979 160.05 37.1986C159.233 38.0992 158.246 38.8292 157.146 39.3464C156.046 39.8636 154.855 40.1579 153.641 40.2123C152.611 40.2809 151.579 40.1157 150.621 39.7289C149.664 39.3422 148.806 38.744 148.111 37.9788V47.0049H142.582V21.3848H148.111V23.1014C148.807 22.3385 149.665 21.743 150.623 21.3594C151.58 20.9758 152.612 20.8141 153.641 20.8864C154.85 20.9409 156.036 21.2334 157.133 21.7471C158.229 22.2609 159.213 22.9858 160.03 23.8805C160.846 24.7752 161.478 25.8222 161.891 26.9617C162.303 28.1012 162.487 29.3109 162.433 30.5217ZM156.903 30.5217C156.882 29.6644 156.608 28.8326 156.116 28.1305C155.624 27.4285 154.936 26.8875 154.139 26.5753C153.341 26.263 152.469 26.1935 151.632 26.3754C150.795 26.5573 150.031 26.9825 149.434 27.5977C148.838 28.2129 148.436 28.9908 148.279 29.8339C148.122 30.6769 148.217 31.5476 148.552 32.3368C148.887 33.126 149.447 33.7986 150.162 34.2704C150.877 34.7421 151.716 34.9919 152.572 34.9886C153.158 35.0135 153.744 34.914 154.289 34.6965C154.835 34.4791 155.328 34.1487 155.737 33.7269C156.146 33.3051 156.461 32.8015 156.662 32.2491C156.863 31.6968 156.945 31.1081 156.903 30.5217Z" fill="#6F6D71"/>
<path d="M179.262 34.1764C179.262 38.3849 175.576 40.1753 171.668 40.1753C170.075 40.319 168.474 39.9807 167.075 39.2041C165.675 38.4276 164.54 37.2485 163.816 35.8192L168.572 33.1243C168.76 33.7829 169.169 34.3568 169.729 34.7499C170.289 35.143 170.967 35.3315 171.65 35.2839C172.958 35.2839 173.622 34.8778 173.622 34.1395C173.622 32.1275 164.646 33.1981 164.646 26.8669C164.646 22.8799 168 20.8864 171.797 20.8864C173.241 20.8217 174.674 21.1496 175.946 21.8354C177.219 22.5211 178.282 23.5391 179.022 24.7811L174.267 27.2915C174.057 26.8153 173.714 26.4102 173.279 26.1252C172.844 25.8402 172.336 25.6876 171.816 25.6856C170.857 25.6856 170.286 26.0548 170.286 26.7008C170.286 28.805 179.262 27.4207 179.262 34.1764Z" fill="#6F6D71"/>
<path d="M199.296 21.3848V39.6585H193.766V37.9418C193.138 38.7017 192.341 39.303 191.438 39.6974C190.535 40.0918 189.552 40.2681 188.569 40.2122C184.882 40.2122 181.73 37.5727 181.73 32.6443V21.3848H187.26V31.8137C187.217 32.2497 187.268 32.6899 187.411 33.104C187.554 33.5181 187.785 33.8962 188.088 34.2121C188.392 34.528 188.76 34.7743 189.167 34.9338C189.575 35.0933 190.012 35.1624 190.449 35.1362C192.439 35.1362 193.84 33.9548 193.84 31.4445V21.3848H199.296Z" fill="#6F6D71"/>
<path d="M230.631 28.4359V39.6585H225.101V28.9158C225.101 27.07 224.235 25.9256 222.484 25.9256C220.733 25.9256 219.627 27.1992 219.627 29.3588V39.6585H214.097V28.9158C214.097 27.07 213.231 25.9256 211.48 25.9256C209.729 25.9256 208.623 27.1992 208.623 29.3588V39.6585H203.094V21.3848H208.623V23.0645C209.196 22.3224 209.944 21.7348 210.8 21.3545C211.655 20.9743 212.593 20.8134 213.526 20.8865C214.461 20.8376 215.393 21.0331 216.23 21.4538C217.067 21.8745 217.78 22.5059 218.3 23.286C218.907 22.471 219.711 21.8234 220.636 21.4038C221.561 20.9841 222.577 20.8062 223.59 20.8865C227.903 20.8865 230.631 23.8767 230.631 28.4359Z" fill="#6F6D71"/>
<path d="M25.0265 8.18707V0.342285H0.328125V54.2406H25.0265V46.3958C19.9671 46.3958 15.1148 44.383 11.5372 40.8002C7.95964 37.2175 5.94978 32.3582 5.94978 27.2914C5.94978 22.2246 7.95964 17.3654 11.5372 13.7826C15.1148 10.1998 19.9671 8.18707 25.0265 8.18707Z" fill="#6F6D71"/>
<path d="M25.0273 8.18701V46.3957C30.0868 46.3957 34.9391 44.3829 38.5166 40.8002C42.0942 37.2174 44.1041 32.3581 44.1041 27.2914C44.1041 22.2246 42.0942 17.3653 38.5166 13.7825C34.9391 10.1998 30.0868 8.18701 25.0273 8.18701Z" fill="#6F6D71"/>
<path d="M235.278 21.274C237.517 21.274 239.332 19.4559 239.332 17.2132C239.332 14.9704 237.517 13.1523 235.278 13.1523C233.038 13.1523 231.223 14.9704 231.223 17.2132C231.223 19.4559 233.038 21.274 235.278 21.274Z" fill="#6F6D71"/>
</svg>
