<?xml version="1.0" standalone="no"?>
<!DOCTYPE svg PUBLIC "-//W3C//DTD SVG 20010904//EN"
 "http://www.w3.org/TR/2001/REC-SVG-20010904/DTD/svg10.dtd">
<svg version="1.0" xmlns="http://www.w3.org/2000/svg"
 width="1024.000000pt" height="1024.000000pt" viewBox="0 0 1024.000000 1024.000000"
 preserveAspectRatio="xMidYMid meet">

<g transform="translate(0.000000,1024.000000) scale(0.100000,-0.100000)"
fill="#000000" stroke="none">
<path d="M0 5120 l0 -5120 5120 0 5120 0 0 5120 0 5120 -5120 0 -5120 0 0
-5120z m7020 1753 c12 -65 28 -152 36 -193 16 -92 18 -211 3 -282 -15 -68 -62
-163 -103 -206 -42 -46 -116 -82 -166 -82 -35 0 -42 4 -51 27 -8 22 -6 40 12
88 12 34 25 102 30 155 8 102 39 205 103 343 25 53 34 86 30 103 -3 13 -9 24
-13 24 -3 -1 -22 -23 -41 -49 -19 -27 -70 -89 -114 -137 -84 -96 -127 -170
-151 -261 -18 -67 -19 -146 -4 -175 7 -13 7 -24 1 -30 -5 -5 -6 -23 -3 -40 8
-39 61 -69 132 -76 27 -2 49 -7 49 -11 0 -3 -15 -13 -33 -21 -22 -10 -36 -26
-43 -50 -11 -33 -45 -369 -60 -584 l-7 -99 63 49 c143 112 237 263 276 444 18
83 17 174 -1 225 -18 50 -18 55 -1 55 25 0 84 -77 101 -132 25 -84 29 -209 11
-328 -35 -229 -192 -454 -396 -571 -34 -19 -62 -42 -65 -54 -2 -11 -14 -155
-25 -320 -31 -448 -85 -953 -135 -1276 -31 -201 -86 -291 -196 -320 -72 -19
-114 -6 -173 55 -148 154 -283 466 -365 846 -65 301 -144 711 -137 717 1 2 53
4 114 5 89 1 112 4 112 15 0 20 54 39 131 47 l66 7 1 -28 c0 -16 10 -52 21
-81 12 -29 21 -55 21 -58 0 -14 -77 11 -93 30 l-17 21 -25 -30 c-14 -16 -25
-36 -25 -43 0 -7 -8 -24 -17 -38 -23 -36 0 -50 31 -19 28 28 113 49 146 37 19
-8 32 -29 55 -88 50 -134 90 -215 156 -314 l63 -95 12 100 c6 55 19 177 29
270 9 94 25 242 35 330 10 88 17 161 16 162 -1 1 -40 -9 -86 -23 -153 -44
-275 -58 -510 -58 -259 0 -425 24 -774 110 -121 30 -229 56 -238 58 -13 3 -21
-8 -32 -43 -9 -25 -17 -55 -19 -66 -2 -11 -9 -32 -15 -46 -19 -46 -219 -858
-272 -1104 -29 -132 -55 -244 -58 -249 -3 -5 29 -7 79 -3 193 14 560 123 608
181 15 18 47 21 56 6 4 -6 38 -33 77 -60 l71 -50 -48 -20 c-26 -11 -69 -27
-94 -34 -25 -8 -108 -33 -183 -55 -197 -60 -336 -90 -472 -101 -66 -6 -121
-12 -123 -14 -2 -2 -14 -41 -27 -87 -25 -90 -55 -157 -80 -178 -23 -20 -98
-25 -142 -11 -52 17 -100 54 -120 92 -16 31 -15 115 2 174 5 19 -1 24 -43 37
-26 9 -86 25 -133 37 -47 11 -130 43 -185 70 -240 119 -408 312 -481 555 -23
78 -27 109 -28 230 -1 157 13 233 70 368 146 347 451 573 887 654 67 12 150
17 306 18 l213 1 58 159 c179 498 460 1068 544 1106 44 20 255 -29 310 -72 43
-34 55 -70 81 -247 46 -308 119 -608 248 -1012 l33 -105 120 2 c65 2 144 8
174 14 68 13 232 60 243 69 9 8 31 219 77 722 5 54 14 106 19 117 9 16 2 28
-48 80 -99 100 -162 264 -148 382 4 28 18 75 32 106 49 108 123 171 310 266
145 73 236 146 283 225 l27 47 7 -97 c4 -54 17 -150 28 -215z m-1420 -2103 c0
-11 -4 -20 -10 -20 -5 0 -10 9 -10 20 0 11 5 20 10 20 6 0 10 -9 10 -20z"/>
<path d="M5193 6028 c-43 -73 -127 -256 -177 -386 -52 -132 -116 -322 -116
-342 0 -5 17 -12 38 -16 20 -3 69 -15 107 -25 92 -24 345 -72 351 -67 2 3 -10
58 -27 124 -40 151 -113 510 -130 634 -7 52 -15 99 -19 103 -4 5 -16 -7 -27
-25z"/>
<path d="M4145 5079 c-350 -45 -613 -218 -744 -492 -59 -123 -75 -192 -74
-332 0 -102 4 -132 26 -200 77 -235 310 -430 607 -510 52 -13 95 -24 96 -22 1
1 36 133 78 292 101 382 193 682 267 874 33 86 71 183 83 216 13 33 33 79 45
102 27 54 27 69 -1 77 -33 8 -301 5 -383 -5z"/>
<path d="M4692 5028 c2 -6 17 -13 32 -15 26 -4 27 -3 13 11 -18 19 -50 21 -45
4z"/>
<path d="M4566 5005 c4 -8 10 -12 15 -9 14 8 10 24 -6 24 -9 0 -12 -6 -9 -15z"/>
<path d="M4566 4935 c-10 -16 -23 -24 -32 -21 -7 3 -13 2 -12 -2 4 -13 -23
-53 -31 -47 -9 5 -24 -55 -16 -63 7 -7 66 -5 73 3 4 3 1 15 -6 26 -11 17 -10
25 5 47 26 40 44 74 40 79 -3 2 -12 -8 -21 -22z"/>
<path d="M4727 4913 c-4 -3 -7 -11 -7 -17 0 -6 5 -5 12 2 6 6 9 14 7 17 -3 3
-9 2 -12 -2z"/>
<path d="M4635 4901 c-3 -5 -1 -12 5 -16 5 -3 10 1 10 9 0 18 -6 21 -15 7z"/>
<path d="M4690 4871 c0 -5 -3 -18 -7 -28 -6 -15 -4 -16 9 -6 8 7 17 10 21 7 3
-3 3 3 0 15 -5 21 -23 30 -23 12z"/>
<path d="M4477 4723 c-12 -12 -7 -22 8 -17 8 4 15 10 15 15 0 11 -14 12 -23 2z"/>
<path d="M4444 4600 c3 -19 2 -29 -4 -25 -6 4 -10 -9 -10 -30 0 -53 21 -39 35
23 10 43 10 52 -2 57 -24 9 -26 6 -19 -25z"/>
<path d="M5724 4523 c-3 -10 -10 -26 -15 -35 -11 -22 1 -29 40 -22 21 4 37 16
46 34 13 26 13 28 -8 34 -38 10 -57 7 -63 -11z"/>
<path d="M4432 4480 c0 -14 2 -19 5 -12 2 6 2 18 0 25 -3 6 -5 1 -5 -13z"/>
</g>
</svg>
