<svg width="1920" height="1116" viewBox="0 0 1920 1116" fill="none" xmlns="http://www.w3.org/2000/svg">
<path d="M0 0H1920V901C1920 901 1624 1115.5 960 1115.5C296 1115.5 0 901 0 901L0 0Z" fill="#DDDDDD"/>
<path d="M0 0H1920V901C1920 901 1624 1115.5 960 1115.5C296 1115.5 0 901 0 901L0 0Z" fill="url(#paint0_linear)"/>
<path d="M0 0H1920V901C1920 901 1624 1115.5 960 1115.5C296 1115.5 0 901 0 901L0 0Z" fill="url(#paint1_linear)" fill-opacity="0.8"/>
<defs>
<linearGradient id="paint0_linear" x1="1920" y1="558" x2="522.5" y2="558" gradientUnits="userSpaceOnUse">
<stop stop-color="#FFD1C9"/>
<stop offset="1" stop-color="#FFE1BE" stop-opacity="0.15"/>
</linearGradient>
<linearGradient id="paint1_linear" x1="1920" y1="1115" x2="-3.15639e-07" y2="5.43521e-07" gradientUnits="userSpaceOnUse">
<stop offset="0.327986" stop-color="#FFEDEB"/>
<stop offset="1" stop-color="#FFF5EB"/>
</linearGradient>
</defs>
</svg>
