<svg width="293" height="66" viewBox="0 0 293 66" fill="none" xmlns="http://www.w3.org/2000/svg">
<path fill-rule="evenodd" clip-rule="evenodd" d="M0.507812 0.461914V65.9022H292.041V0.461914H0.507812ZM288.364 62.2105H139.452V4.15358H288.364V62.2105ZM16.0041 44.1454V22.3886H23.4828V38.3513H36.6753V44.1454H16.0041ZM51.6121 44.4776C61.854 44.4776 66.1596 40.0421 66.1596 33.1147C66.1596 26.0747 61.3098 21.8902 51.6121 21.8902C42.0634 21.8902 37.0371 26.4346 37.0371 33.1147C37.0371 40.6531 42.3097 44.4776 51.6121 44.4776ZM51.5846 27.544C57.3535 27.544 58.6514 30.0599 58.6514 33.1978C58.6514 36.524 57.0814 38.9069 51.6085 38.9069C46.1704 38.9069 44.5986 36.6624 44.5986 33.1978C44.5986 29.7885 46.312 27.544 51.5846 27.544ZM89.2942 44.1454L89.1012 42.0374C86.5994 43.8302 83.5543 44.6929 80.4882 44.4776C75.8793 44.4776 72.0406 43.0914 69.8878 40.2931C68.468 38.2502 67.7509 35.7979 67.8454 33.3085C67.7647 30.8714 68.5065 28.4784 69.9503 26.5177C72.1289 23.8025 76.0778 22.0009 81.9571 22.0009C88.7206 22.0009 92.6953 24.0794 94.405 27.5717C94.7721 28.3941 94.9876 29.2765 95.0411 30.1761H87.886C87.7057 29.6295 87.3702 29.1476 86.9208 28.7899C85.4956 27.8412 83.7936 27.4023 82.0894 27.544C81.0899 27.4223 80.076 27.5151 79.1148 27.8161C78.1536 28.1171 77.2669 28.6195 76.5135 29.2901C75.658 30.4659 75.2563 31.9133 75.3829 33.3639C75.2837 34.7478 75.653 36.1247 76.4308 37.2715C77.1911 37.9826 78.0948 38.5214 79.0806 38.8513C80.0664 39.1812 81.1113 39.2946 82.1446 39.1838C84.197 39.3514 86.2344 38.7158 87.8308 37.4099C88.1738 36.9795 88.4101 36.4734 88.5202 35.9333H80.8209V31.2578H95.2286V44.1454H89.2942ZM111.901 44.4776C122.141 44.4776 126.449 40.0421 126.449 33.1147C126.449 26.0747 121.592 21.8902 111.901 21.8902C102.353 21.8902 97.3265 26.4346 97.3265 33.1147C97.3265 40.6531 102.599 44.4776 111.901 44.4776ZM111.874 27.544C117.643 27.544 118.941 30.0599 118.941 33.1978C118.941 36.524 117.369 38.9069 111.898 38.9069C106.462 38.9069 104.888 36.6624 104.888 33.1978C104.888 29.7885 106.601 27.544 111.874 27.544Z" fill="#6F6D71"/>
<path d="M152.051 44.062V22.3052H157.382V44.062H152.051Z" fill="#6F6D71"/>
<path d="M184.758 34.9716C183.407 36.7454 181.082 37.5558 177.804 37.5761C177.112 37.5761 167.948 37.5484 167.948 37.5484V44.0623H162.73V22.3055H177.806C179.014 22.1772 180.236 22.3058 181.391 22.683C182.547 23.0602 183.61 23.6775 184.512 24.4947C185.703 26.0529 186.282 27.9958 186.141 29.9546C186.263 31.7362 185.775 33.5061 184.758 34.9716ZM180.48 27.8781C179.929 27.0474 178.739 26.586 176.726 26.586H167.92V33.2088H176.669C178.822 33.2088 179.956 32.7658 180.48 31.9057C180.792 31.2997 180.926 30.6174 180.867 29.938C180.913 29.2297 180.78 28.521 180.48 27.8781Z" fill="#6F6D71"/>
<path d="M201.516 44.3944C191.687 44.3944 188.68 40.7028 188.68 37.0499H194.256C194.256 38.8514 196.712 40.21 201.764 40.21C206.786 40.21 208.112 39.3221 208.112 37.8805C208.112 36.2728 207.119 35.7744 202.453 35.2484C201.534 35.1653 199.032 34.8607 198.092 34.7223C191.474 33.9729 188.926 32.0052 188.926 28.4852C188.926 24.7714 192.654 21.9731 200.742 21.9731C209.52 21.9731 212.888 25.4378 212.888 29.0408H207.373C207.373 27.2116 205.303 26.1576 200.416 26.1576C195.392 26.1576 194.316 26.8498 194.316 28.2084C194.316 29.6223 195.419 30.0653 200.751 30.7021C201.966 30.87 204.67 31.1746 205.415 31.2558C211.048 31.8373 213.587 33.888 213.587 37.5187C213.577 41.8435 209.713 44.3944 201.516 44.3944Z" fill="#6F6D71"/>
<path d="M229.287 44.3665C222.084 44.3665 217.391 41.511 217.391 35.5066V22.3052H222.661V35.5804C222.661 38.3251 224.899 40.1525 229.508 40.1525C233.675 40.1525 236.161 38.4359 236.161 35.5804V22.3052H241.378V35.9994C241.378 41.4575 237.016 44.3665 229.287 44.3665Z" fill="#6F6D71"/>
<path d="M269.946 44.062V29.539L263.183 44.062H258.05L251.479 29.539V44.062H246.516V22.3052H253.241L260.694 38.8789L268.312 22.3052H274.93V44.062H269.946Z" fill="#6F6D71"/>
</svg>
